# xmcd CD database file
#
# Track frame offsets:
#	150
#	16867
#	40832
#	69010
#	94740
#	117320
#	131187
#	144092
#	168712
#	194092
#	214390
#	234537
#	257402
#
# Disc length: 3589 seconds
#
# Revision: 0
# Processed by: cddbd v1.4PL0 Copyright (c) Steve Scherf et al.
# Submitted via: CDex 1.50
#
DISCID=b70e030d
DTITLE=Jimmie Lee Robinson and The Ice Cream Men - Lonely Traveller
DYEAR=1994
DGENRE=Blues
TTITLE0=Lonely Traveller
TTITLE1=Easy Baby
TTITLE2=Can't Be Successful
TTITLE3=Twist It Baby
TTITLE4=Leave My Woman Alone
TTITLE5=I'll Be Your Slave
TTITLE6=Triflin' On You
TTITLE7=All My Life
TTITLE8=44 Blues
TTITLE9=Key To The Highway
TTITLE10=Times Are Getting Harder
TTITLE11=Lonely Man
TTITLE12=Robinson's Rang Tangle
EXTD=YEAR: 1994
EXTT0=
EXTT1=
EXTT2=
EXTT3=
EXTT4=
EXTT5=
EXTT6=
EXTT7=
EXTT8=
EXTT9=
EXTT10=
EXTT11=
EXTT12=
PLAYORDER=
